<svg id="e23dJHI0wty1" xmlns="http://www.w3.org/2000/svg" xmlns:xlink="http://www.w3.org/1999/xlink" viewBox="0 0 200 130" shape-rendering="geometricPrecision" text-rendering="geometricPrecision" style="background-color:rgba(255,255,255,0)"><defs><clipPath id="e23dJHI0wty2"><rect id="e23dJHI0wty3" width="280" height="106.110000" rx="0" ry="0" stroke="none" stroke-width="1"/></clipPath></defs><g id="e23dJHI0wty4" display="none" transform="matrix(1 0 0 1 -10.32814645500000 0)"><rect id="e23dJHI0wty5" width="234.186864" height="131.819065" rx="0" ry="0" transform="matrix(1 0 0 1 -6.76528300000000 0)" fill="rgb(34,34,37)" stroke="none" stroke-width="0"/></g><g id="e23dJHI0wty6"><polygon id="e23dJHI0wty7" display="none" points="0,-37.511115 37.511115,0 0,37.511115 -37.511115,0 0,-37.511115" transform="matrix(0.66241325983403 0 0 1.10615303792857 99.99999999999999 65)" fill="rgb(210,219,237)" stroke="none" stroke-width="0"/><polygon id="e23dJHI0wty8" points="0,-37.511115 37.511115,0 0,37.511115 -37.511115,0 0,-37.511115" transform="matrix(0.28046229868445 0 0 0.46833939252961 99.99999999999989 41.07489930999991)" fill="rgb(98,196,255)" stroke="none" stroke-width="0"/><g id="e23dJHI0wty9"><path id="e23dJHI0wty10" d="M81.154960,74.955430L89.479550,61.054340L100,78.622270L110.520450,61.054340L118.845040,74.955430L108.304050,92.557650L108.324580,92.591940L99.999990,106.493030L91.675400,92.591940L91.695930,92.557650L81.154960,74.955430Z" fill="rgb(98,196,255)" stroke="none" stroke-width="0"/></g><g id="e23dJHI0wty11" display="none"><polygon id="e23dJHI0wty12" points="0,-37.511115 37.511115,0 0,37.511115 -37.511115,0 0,-37.511115" transform="matrix(0.15948033446095 0 0 0.26631359477623 89.47954660000005 51.06461905999999)" fill="rgb(44,44,44)" stroke="none" stroke-width="0"/><polygon id="e23dJHI0wty13" points="0,-37.511115 37.511115,0 0,37.511115 -37.511115,0 0,-37.511115" transform="matrix(0.15948033446095 0 0 0.26631359477623 83.49726150999994 61.05433880999999)" fill="rgb(44,44,44)" stroke="none" stroke-width="0"/><polygon id="e23dJHI0wty14" points="0,-37.511115 37.511115,0 0,37.511115 -37.511115,0 0,-37.511115" transform="matrix(0.15948033446095 0 0 0.26631359477623 77.51497641999988 71.04405855999998)" fill="rgb(44,44,44)" stroke="none" stroke-width="0"/><polygon id="e23dJHI0wty15" points="0,-37.511115 37.511115,0 0,37.511115 -37.511115,0 0,-37.511115" transform="matrix(0.15948033446095 0 0 0.26631359477623 116.50273849000010 61.05433881000000)" fill="rgb(44,44,44)" stroke="none" stroke-width="0"/><polygon id="e23dJHI0wty16" points="0,-37.511115 37.511115,0 0,37.511115 -37.511115,0 0,-37.511115" transform="matrix(0.15948033446095 0 0 0.26631359477623 122.48502358000022 71.04405856000001)" fill="rgb(44,44,44)" stroke="none" stroke-width="0"/><polygon id="e23dJHI0wty17" points="0,-37.511115 37.511115,0 0,37.511115 -37.511115,0 0,-37.511115" transform="matrix(0.15948033446095 0 0 0.26631359477623 95.46183168999988 61.05433880999999)" fill="rgb(44,44,44)" stroke="none" stroke-width="0"/><polygon id="e23dJHI0wty18" points="0,-37.511115 37.511115,0 0,37.511115 -37.511115,0 0,-37.511115" transform="matrix(0.15948033446095 0 0 0.26631359477623 99.99999999999990 68.63255163999999)" fill="rgb(44,44,44)" stroke="none" stroke-width="0"/><path id="e23dJHI0wty19" d="M77.514980,81.033780L65.550410,81.033780L71.532700,71.044060L77.514980,81.033780Z" transform="matrix(1 0 0 1 56.93461357999985 0)" fill="rgb(44,44,44)" stroke="none" stroke-width="0.400000" stroke-linecap="round"/><path id="e23dJHI0wty20" d="M77.514980,81.033780L65.550410,81.033780L71.532700,71.044060L77.514980,81.033780Z" fill="rgb(44,44,44)" stroke="none" stroke-width="0.400000" stroke-linecap="round"/><polygon id="e23dJHI0wty21" points="0,-37.511115 37.511115,0 0,37.511115 -37.511115,0 0,-37.511115" transform="matrix(0.15948033446095 0 0 0.26631359477623 110.52045339999982 51.06461905999998)" fill="rgb(44,44,44)" stroke="none" stroke-width="0"/><polygon id="e23dJHI0wty22" points="0,-37.511115 37.511115,0 0,37.511115 -37.511115,0 0,-37.511115" transform="matrix(0.15948033446095 0 0 0.26631359477623 104.53816830999990 61.05433881000000)" fill="rgb(44,44,44)" stroke="none" stroke-width="0"/></g><g id="e23dJHI0wty23" display="none" opacity="0"><path id="e23dJHI0wty24" d="M134.449590,81.033780L122.485020,81.033780L128.467310,71.044060L134.449590,81.033780ZM65.550410,81.033780L71.532700,71.044070L71.532690,71.044060L89.479550,41.074900L100,58.642830L110.520450,41.074900L128.467310,71.044060L122.485020,81.033780L110.520450,61.054340L100,78.622270L89.479550,61.054340L77.514980,81.033780L65.550410,81.033780Z" transform="matrix(1 0 0 1 0 -0.00000069000000)" fill="rgb(34,34,37)" stroke="none" stroke-width="0.400000" stroke-linecap="round"/></g></g></svg>